<svg id="svg" version="1.1" xmlns="http://www.w3.org/2000/svg" xmlns:xlink="http://www.w3.org/1999/xlink" width="400" height="400" viewBox="0, 0, 400,400"><g id="svgg"><path id="path0" d="M113.600 38.429 C 111.070 38.842,108.190 39.373,107.200 39.609 C 101.022 41.083,97.707 42.081,95.868 43.021 C 95.245 43.340,94.551 43.600,94.325 43.600 C 93.924 43.600,86.581 47.150,85.000 48.108 C 73.028 55.364,61.532 66.782,55.149 77.758 C 52.366 82.544,50.509 86.061,49.214 89.000 C 48.826 89.880,48.220 91.230,47.867 92.000 C 45.937 96.216,43.098 105.877,42.224 111.200 C 41.918 113.070,41.474 115.410,41.238 116.400 C 39.628 123.167,39.729 149.561,41.391 156.400 C 41.685 157.610,42.049 159.668,42.201 160.974 C 42.352 162.280,42.659 163.810,42.882 164.374 C 43.105 164.938,43.523 166.390,43.811 167.600 C 44.716 171.404,46.556 177.092,47.759 179.800 C 48.052 180.460,48.570 181.630,48.909 182.400 C 49.922 184.701,52.021 188.899,52.940 190.464 C 53.413 191.270,54.407 192.971,55.149 194.245 C 55.891 195.519,57.511 197.940,58.749 199.624 C 74.169 220.606,93.686 231.433,119.327 233.233 C 130.503 234.017,141.308 233.011,150.000 230.376 C 151.430 229.943,152.777 229.591,152.992 229.594 C 153.705 229.605,159.492 227.228,163.400 225.320 C 168.126 223.012,171.107 221.212,175.101 218.257 C 178.022 216.096,178.212 216.350,178.549 222.897 C 178.700 225.814,178.991 231.080,179.196 234.600 C 179.669 242.712,179.671 273.547,179.198 281.200 C 179.001 284.390,178.649 291.500,178.416 297.000 C 178.183 302.500,177.730 311.680,177.410 317.400 C 176.520 333.311,176.259 346.853,176.820 348.084 C 177.678 349.968,178.603 350.157,185.088 349.771 C 192.488 349.331,196.126 349.331,204.218 349.769 C 211.504 350.163,212.064 350.029,212.830 347.709 C 213.323 346.215,213.065 327.999,211.991 288.493 C 211.474 269.463,211.557 269.206,218.331 268.725 C 232.119 267.746,305.094 268.047,307.927 269.095 C 308.392 269.267,309.229 270.026,309.786 270.781 L 310.800 272.155 310.779 285.178 C 310.768 292.340,310.592 301.350,310.388 305.200 C 309.694 318.332,309.195 346.095,309.624 347.688 C 310.248 350.007,310.877 350.163,317.980 349.765 C 325.717 349.330,329.698 349.332,337.663 349.774 L 343.926 350.121 344.963 349.002 C 345.945 347.943,346.000 347.656,345.994 343.642 C 345.983 336.460,344.842 305.245,344.428 300.800 C 342.854 283.911,342.878 229.175,344.469 203.400 C 344.727 199.220,344.952 188.620,344.969 179.845 L 345.000 163.890 343.916 163.079 C 342.858 162.287,342.656 162.280,335.191 162.780 C 329.098 163.188,326.076 163.193,320.275 162.805 C 309.249 162.069,309.900 161.070,310.400 177.943 C 311.944 230.081,311.869 236.394,309.690 237.926 C 307.444 239.505,276.035 240.256,239.542 239.604 C 214.124 239.150,214.106 239.149,212.303 237.570 L 211.000 236.430 211.100 226.115 C 211.155 220.442,211.461 211.660,211.781 206.600 C 212.783 190.735,213.401 165.452,212.821 164.050 C 212.121 162.360,211.141 162.245,202.268 162.815 C 196.385 163.193,193.111 163.202,188.200 162.853 C 178.939 162.194,178.945 162.194,177.514 163.624 L 176.290 164.849 176.494 170.516 L 176.697 176.183 175.441 177.391 C 165.658 186.802,157.706 192.843,151.000 195.959 C 149.460 196.674,147.722 197.516,147.138 197.830 C 146.554 198.143,145.772 198.400,145.399 198.400 C 145.026 198.400,144.154 198.663,143.460 198.985 C 142.067 199.632,137.710 200.620,133.400 201.267 C 129.731 201.818,120.592 201.455,116.800 200.608 C 113.398 199.848,107.601 198.082,107.000 197.622 C 106.780 197.454,106.060 197.132,105.400 196.907 C 100.428 195.212,91.089 187.392,86.881 181.400 C 80.787 172.722,76.181 161.222,74.787 151.200 C 74.558 149.550,74.207 147.300,74.009 146.200 C 73.406 142.864,73.520 125.733,74.168 122.144 C 74.480 120.415,74.852 118.100,74.994 117.000 C 75.244 115.061,75.587 113.699,77.311 107.800 C 78.286 104.465,81.039 97.831,82.068 96.338 C 82.471 95.754,82.800 95.137,82.800 94.968 C 82.800 94.721,85.532 90.467,86.889 88.600 C 89.659 84.789,94.257 80.123,97.184 78.152 C 97.963 77.627,99.238 76.770,100.018 76.246 C 100.798 75.722,102.418 74.806,103.618 74.211 C 104.818 73.616,106.250 72.896,106.800 72.611 C 107.350 72.326,108.430 71.961,109.200 71.800 C 109.970 71.639,110.804 71.344,111.054 71.143 C 111.303 70.943,112.923 70.514,114.654 70.190 C 116.384 69.866,118.610 69.429,119.600 69.218 C 121.933 68.721,132.871 68.722,135.200 69.219 C 136.190 69.430,138.260 69.859,139.800 70.172 C 147.286 71.696,157.288 76.958,162.633 82.186 C 175.122 94.403,175.688 94.745,178.374 91.700 C 180.440 89.358,186.000 81.545,186.000 80.984 C 186.000 80.878,186.638 79.884,187.418 78.774 C 188.198 77.664,189.011 76.361,189.225 75.878 C 189.439 75.395,190.150 74.014,190.807 72.808 C 193.053 68.682,192.228 66.667,185.454 59.730 C 180.542 54.700,176.025 51.175,170.535 48.086 C 169.251 47.363,167.930 46.597,167.600 46.384 C 167.270 46.170,166.730 45.884,166.400 45.749 C 166.070 45.614,165.080 45.181,164.200 44.786 C 160.060 42.928,155.894 41.458,152.400 40.622 C 151.190 40.333,149.390 39.895,148.400 39.649 C 139.734 37.495,122.941 36.906,113.600 38.429 " stroke="none" fill="#060606" fill-rule="evenodd"></path><path id="path1" d="M0.000 200.000 L 0.000 400.000 200.000 400.000 L 400.000 400.000 400.000 200.000 L 400.000 0.000 200.000 0.000 L 0.000 0.000 0.000 200.000 M141.355 38.401 C 144.240 38.841,147.410 39.403,148.400 39.649 C 149.390 39.895,151.190 40.333,152.400 40.622 C 155.894 41.458,160.060 42.928,164.200 44.786 C 165.080 45.181,166.070 45.614,166.400 45.749 C 166.730 45.884,167.270 46.170,167.600 46.384 C 167.930 46.597,169.251 47.363,170.535 48.086 C 176.025 51.175,180.542 54.700,185.454 59.730 C 192.228 66.667,193.053 68.682,190.807 72.808 C 190.150 74.014,189.439 75.395,189.225 75.878 C 189.011 76.361,188.198 77.664,187.418 78.774 C 186.638 79.884,186.000 80.878,186.000 80.984 C 186.000 81.545,180.440 89.358,178.374 91.700 C 175.688 94.745,175.122 94.403,162.633 82.186 C 157.288 76.958,147.286 71.696,139.800 70.172 C 138.260 69.859,136.190 69.430,135.200 69.219 C 132.871 68.722,121.933 68.721,119.600 69.218 C 118.610 69.429,116.384 69.866,114.654 70.190 C 112.923 70.514,111.303 70.943,111.054 71.143 C 110.804 71.344,109.970 71.639,109.200 71.800 C 108.430 71.961,107.350 72.326,106.800 72.611 C 106.250 72.896,104.818 73.616,103.618 74.211 C 102.418 74.806,100.798 75.722,100.018 76.246 C 99.238 76.770,97.963 77.627,97.184 78.152 C 94.257 80.123,89.659 84.789,86.889 88.600 C 85.532 90.467,82.800 94.721,82.800 94.968 C 82.800 95.137,82.471 95.754,82.068 96.338 C 79.904 99.478,75.652 111.897,74.994 117.000 C 74.852 118.100,74.480 120.415,74.168 122.144 C 73.520 125.733,73.406 142.864,74.009 146.200 C 74.207 147.300,74.558 149.550,74.787 151.200 C 76.181 161.222,80.787 172.722,86.881 181.400 C 91.089 187.392,100.428 195.212,105.400 196.907 C 106.060 197.132,106.780 197.454,107.000 197.622 C 107.601 198.082,113.398 199.848,116.800 200.608 C 120.592 201.455,129.731 201.818,133.400 201.267 C 137.710 200.620,142.067 199.632,143.460 198.985 C 144.154 198.663,145.026 198.400,145.399 198.400 C 145.772 198.400,146.554 198.143,147.138 197.830 C 147.722 197.516,149.460 196.674,151.000 195.959 C 157.706 192.843,165.658 186.802,175.441 177.391 L 176.697 176.183 176.494 170.516 L 176.290 164.849 177.514 163.624 C 178.945 162.194,178.939 162.194,188.200 162.853 C 193.111 163.202,196.385 163.193,202.268 162.815 C 211.141 162.245,212.121 162.360,212.821 164.050 C 213.401 165.452,212.783 190.735,211.781 206.600 C 211.461 211.660,211.155 220.442,211.100 226.115 L 211.000 236.430 212.303 237.570 C 214.106 239.149,214.124 239.150,239.542 239.604 C 276.035 240.256,307.444 239.505,309.690 237.926 C 311.869 236.394,311.944 230.081,310.400 177.943 C 309.900 161.070,309.249 162.069,320.275 162.805 C 326.076 163.193,329.098 163.188,335.191 162.780 C 342.656 162.280,342.858 162.287,343.916 163.079 L 345.000 163.890 344.969 179.845 C 344.952 188.620,344.727 199.220,344.469 203.400 C 342.878 229.175,342.854 283.911,344.428 300.800 C 344.842 305.245,345.983 336.460,345.994 343.642 C 346.000 347.656,345.945 347.943,344.963 349.002 L 343.926 350.121 337.663 349.774 C 329.698 349.332,325.717 349.330,317.980 349.765 C 310.877 350.163,310.248 350.007,309.624 347.688 C 309.195 346.095,309.694 318.332,310.388 305.200 C 310.592 301.350,310.768 292.340,310.779 285.178 L 310.800 272.155 309.786 270.781 C 309.229 270.026,308.392 269.267,307.927 269.095 C 305.094 268.047,232.119 267.746,218.331 268.725 C 211.557 269.206,211.474 269.463,211.991 288.493 C 213.065 327.999,213.323 346.215,212.830 347.709 C 212.064 350.029,211.504 350.163,204.218 349.769 C 196.126 349.331,192.488 349.331,185.088 349.771 C 178.603 350.157,177.678 349.968,176.820 348.084 C 176.259 346.853,176.520 333.311,177.410 317.400 C 177.730 311.680,178.183 302.500,178.416 297.000 C 178.649 291.500,179.001 284.390,179.198 281.200 C 179.671 273.547,179.669 242.712,179.196 234.600 C 178.991 231.080,178.700 225.814,178.549 222.897 C 178.212 216.350,178.022 216.096,175.101 218.257 C 171.107 221.212,168.126 223.012,163.400 225.320 C 159.492 227.228,153.705 229.605,152.992 229.594 C 152.777 229.591,151.430 229.943,150.000 230.376 C 134.239 235.153,111.300 234.349,95.800 228.476 C 82.806 223.553,72.895 216.489,63.200 205.240 C 60.317 201.894,56.833 197.137,55.149 194.245 C 54.407 192.971,53.413 191.270,52.940 190.464 C 52.021 188.899,49.922 184.701,48.909 182.400 C 48.570 181.630,48.052 180.460,47.759 179.800 C 46.556 177.092,44.716 171.404,43.811 167.600 C 43.523 166.390,43.105 164.938,42.882 164.374 C 42.659 163.810,42.352 162.280,42.201 160.974 C 42.049 159.668,41.685 157.610,41.391 156.400 C 39.729 149.561,39.628 123.167,41.238 116.400 C 41.474 115.410,41.918 113.070,42.224 111.200 C 43.098 105.877,45.937 96.216,47.867 92.000 C 48.220 91.230,48.826 89.880,49.214 89.000 C 56.689 72.040,69.314 57.614,85.000 48.108 C 86.581 47.150,93.924 43.600,94.325 43.600 C 94.551 43.600,95.245 43.340,95.868 43.021 C 97.707 42.081,101.022 41.083,107.200 39.609 C 116.226 37.456,131.600 36.912,141.355 38.401 " stroke="none" fill="#fbfbfb" fill-rule="evenodd"></path></g></svg>